<svg width="22" height="23" viewBox="0 0 22 23" fill="none" xmlns="http://www.w3.org/2000/svg"><path d="M11.0025 5.50648C7.88098 5.50648 5.36319 8.02427 5.36319 11.1457C5.36319 14.2672 7.88098 16.785 11.0025 16.785C14.1239 16.785 16.6417 14.2672 16.6417 11.1457C16.6417 8.02427 14.1239 5.50648 11.0025 5.50648ZM11.0025 14.812C8.98528 14.812 7.3362 13.1678 7.3362 11.1457C7.3362 9.12365 8.98037 7.47948 11.0025 7.47948C13.0245 7.47948 14.6687 9.12365 14.6687 11.1457C14.6687 13.1678 13.0196 14.812 11.0025 14.812ZM18.1877 5.2758C18.1877 6.00709 17.5988 6.59114 16.8724 6.59114C16.1411 6.59114 15.5571 6.00218 15.5571 5.2758C15.5571 4.54942 16.146 3.96046 16.8724 3.96046C17.5988 3.96046 18.1877 4.54942 18.1877 5.2758ZM21.9227 6.61077C21.8393 4.84881 21.4368 3.28807 20.146 2.00218C18.8601 0.716291 17.2994 0.313838 15.5374 0.225494C13.7215 0.122426 8.27853 0.122426 6.46258 0.225494C4.70552 0.30893 3.14479 0.711384 1.85399 1.99727C0.56319 3.28316 0.165644 4.8439 0.0773006 6.60586C-0.0257669 8.42181 -0.0257669 13.8648 0.0773006 15.6807C0.160736 17.4427 0.56319 19.0034 1.85399 20.2893C3.14479 21.5752 4.70061 21.9776 6.46258 22.066C8.27853 22.1691 13.7215 22.1691 15.5374 22.066C17.2994 21.9825 18.8601 21.5801 20.146 20.2893C21.4319 19.0034 21.8344 17.4427 21.9227 15.6807C22.0258 13.8648 22.0258 8.42672 21.9227 6.61077ZM19.5767 17.6292C19.1939 18.5911 18.4528 19.3322 17.4859 19.72C16.038 20.2942 12.6025 20.1617 11.0025 20.1617C9.40245 20.1617 5.96196 20.2893 4.51902 19.72C3.55705 19.3372 2.81595 18.596 2.42822 17.6292C1.85399 16.1813 1.9865 12.7457 1.9865 11.1457C1.9865 9.54574 1.8589 6.10525 2.42822 4.6623C2.81104 3.70034 3.55215 2.95924 4.51902 2.57151C5.96687 1.99727 9.40245 2.12979 11.0025 2.12979C12.6025 2.12979 16.0429 2.00218 17.4859 2.57151C18.4479 2.95433 19.189 3.69543 19.5767 4.6623C20.1509 6.11016 20.0184 9.54574 20.0184 11.1457C20.0184 12.7457 20.1509 16.1862 19.5767 17.6292Z" fill="white"/></svg>